<svg width="44" height="33" viewBox="0 0 44 33" fill="none" xmlns="http://www.w3.org/2000/svg">
<path d="M38.8432 22.4097L38.6768 22.3981C38.2636 22.3623 37.848 22.3275 37.4467 22.2447C35.5924 21.8072 34.3272 20.0223 34.1608 17.5859C34.1492 17.4092 34.1379 17.2319 34.1379 17.0552C34.1724 16.7712 34.2098 16.476 34.196 16.1804C34.1847 13.662 32.5658 11.605 30.4256 11.4158L30.2476 11.4045C29.8344 11.3684 29.4211 11.333 29.0191 11.2379C27.1629 10.8017 25.8973 9.02836 25.7313 6.58097C25.7313 6.55679 25.7313 6.54551 25.7313 6.5223C25.8261 6.00136 25.8628 5.44592 25.8145 4.85471C25.602 2.4792 23.9232 0.645907 21.7727 0.586914C21.7372 0.586914 21.7024 0.598523 21.6537 0.598523C21.6195 0.598523 21.5705 0.586914 21.536 0.586914C19.3843 0.646229 17.6941 2.4792 17.4933 4.85471C17.4462 5.43432 17.4817 5.98976 17.5768 6.5223C17.5768 6.54519 17.5768 6.55647 17.5768 6.58097C17.4101 9.01546 16.1451 10.802 14.2896 11.2379C13.8866 11.333 13.4734 11.3681 13.0601 11.4045L12.8938 11.4158C10.7545 11.605 9.13499 13.6498 9.12338 16.1804C9.12338 16.476 9.14627 16.7712 9.18238 17.0552C9.17077 17.2322 9.17077 17.4095 9.15788 17.5859C8.99412 20.0226 7.72883 21.8072 5.87233 22.2447C5.47067 22.3391 5.0574 22.3746 4.64284 22.3981L4.47746 22.4097C2.33728 22.599 -0.167816 24.6792 0.00883971 27.7294C0.162285 30.4137 2.38467 31.9727 4.63123 32.1032L4.83206 32.1145C6.94807 32.1145 8.68561 30.1649 8.86227 27.5872L8.94544 26.0866C9.12306 23.7108 10.2939 22.0077 12.0669 21.5116C12.397 21.4165 12.7526 21.3811 13.0943 21.3333C13.4731 21.2863 13.8631 21.2389 14.2419 21.1454C16.3221 20.6364 17.3637 15.6246 17.3392 15.5056L17.3634 15.0801C17.5274 12.7514 18.7334 10.99 20.4829 10.5064C20.8152 10.4116 21.1682 10.3759 21.5122 10.3281C21.5583 10.3281 21.607 10.3052 21.6647 10.3052C21.7133 10.3052 21.7594 10.3281 21.8191 10.3281C22.1611 10.3755 22.5051 10.4116 22.8468 10.5064C24.6082 10.99 25.8019 12.7404 25.9686 15.0801L25.9914 15.5056C25.9686 15.6246 27.0072 20.6364 29.09 21.1454C29.4665 21.2389 29.845 21.2863 30.2238 21.3333C30.5677 21.3807 30.9207 21.4165 31.2531 21.5116C33.038 22.0077 34.2089 23.7108 34.3726 26.0866L34.4558 27.5872C34.634 30.1649 36.3587 32.1145 38.476 32.1145L38.6765 32.1032C40.9234 31.9727 43.1442 30.4137 43.2989 27.7294C43.4888 24.6792 40.9698 22.599 38.8432 22.4097ZM4.80756 31.2757V31.2644V31.2757ZM38.4876 31.2757V31.2644V31.2757Z" fill="#008EEE"/>
<path d="M30.2243 11.4043C28.0148 11.4043 26.2988 13.1528 26.0403 15.5647C26.0036 15.9432 25.98 16.322 25.9687 16.6995L25.9339 17.3858C25.7676 19.8216 24.503 21.6062 22.6461 22.0436C22.3164 22.1142 21.9843 22.1494 21.6532 22.1729C21.3235 22.1494 20.9795 22.1139 20.6604 22.0436C18.8042 21.6062 17.5399 19.8212 17.3751 17.3858L17.3394 16.6995C17.3152 16.322 17.3036 15.9432 17.2691 15.5647C17.008 13.1528 15.2946 11.4043 13.0829 11.4043C11.0384 11.463 8.82764 13.3062 8.62648 15.6837C8.40276 18.2961 10.2335 20.4595 12.3153 20.9673C12.6928 21.0627 13.0712 21.1091 13.45 21.1568C13.7927 21.2045 14.1357 21.239 14.4774 21.3335C19.2661 23.0075 17.7539 25.8224 17.7539 25.8224C17.5286 26.5229 17.2807 27.3633 17.2807 28.0022C17.2807 30.5905 18.9177 32.6946 21.6652 32.6946C24.2744 32.6946 26.0519 30.5908 26.0519 28.0022C26.0519 27.3282 25.7737 26.1489 25.6087 25.6432C25.6087 25.6432 24.7821 22.2451 28.8065 21.3338C29.1482 21.2393 29.4922 21.2052 29.8342 21.1571C30.2127 21.1097 30.6031 21.063 30.9818 20.9676C33.0624 20.4602 34.8818 18.2965 34.6691 15.684C34.4911 13.3066 32.27 11.463 30.2243 11.4043Z" fill="url(#paint0_linear)"/>
<defs>
<linearGradient id="paint0_linear" x1="14.1849" y1="29.0988" x2="26.0991" y2="8.46272" gradientUnits="userSpaceOnUse">
<stop stop-color="#00C1B0"/>
<stop offset="1" stop-color="#1CE5FF"/>
</linearGradient>
</defs>
</svg>
